<svg version="1.1" id="Layer_1" xmlns="http://www.w3.org/2000/svg" xmlns:xlink="http://www.w3.org/1999/xlink" x="0px" y="0px"
	 width="100%" viewBox="0 0 202 175" enable-background="new 0 0 202 175" xml:space="preserve">
<path fill="#000000" opacity="1.000000" stroke="none" 
	d="
M137.000000,176.000000 
	C91.363297,176.000000 46.226601,176.000000 1.044949,176.000000 
	C1.044949,117.735367 1.044949,59.470684 1.044949,1.103002 
	C68.219849,1.103002 135.439911,1.103002 202.829987,1.103002 
	C202.829987,59.332924 202.829987,117.666428 202.829987,176.000000 
	C181.137650,176.000000 159.318817,176.000000 137.000000,176.000000 
M155.267532,26.092411 
	C138.233704,25.337891 121.331665,26.338402 104.706039,30.304533 
	C82.196472,35.674309 62.511009,45.947128 46.256931,62.849842 
	C32.155109,77.514412 24.457048,94.328644 24.969120,114.866600 
	C25.446646,134.018951 35.882595,147.422516 49.596321,159.085648 
	C50.080681,159.497604 50.902779,159.512405 52.824654,160.090378 
	C51.033470,157.560242 50.059586,156.048416 48.952694,154.641220 
	C28.467165,128.597763 38.480499,97.385033 60.272617,79.251144 
	C74.435196,67.466034 91.599388,61.085110 109.833397,58.174980 
	C125.528793,55.670010 141.285660,54.995296 157.061172,57.787010 
	C159.908234,58.290836 163.136719,59.449223 165.105881,55.933598 
	C169.168396,48.680611 173.179672,41.398949 177.220505,34.133793 
	C178.737595,31.406145 178.024857,29.605333 174.933594,29.083994 
	C168.703552,28.033295 162.451599,27.112387 155.267532,26.092411 
M73.491531,113.940376 
	C80.622940,110.880997 87.551407,107.154625 94.930550,104.909515 
	C107.874405,100.971359 121.229851,101.580101 134.496902,103.446518 
	C138.275116,103.978035 140.951965,102.949158 142.762573,99.503265 
	C145.388748,94.505219 148.204834,89.607185 150.849792,84.618698 
	C153.223953,80.140961 152.562332,78.287125 147.540604,78.052460 
	C135.438690,77.486977 123.211304,76.403519 111.214806,77.500519 
	C90.856117,79.362167 72.452171,86.045502 59.094658,103.115227 
	C45.675705,120.263474 46.988449,145.368683 62.815083,160.163788 
	C64.084320,161.350296 65.736237,162.127426 67.210327,163.094803 
	C67.534256,162.777985 67.858185,162.461166 68.182114,162.144333 
	C61.758255,154.966553 57.931076,146.977127 59.106716,137.158707 
	C60.274029,127.409836 65.430061,120.219017 73.491531,113.940376 
M131.156860,125.569908 
	C132.356705,122.211609 130.895309,120.342888 127.641022,119.930122 
	C113.628319,118.152756 99.676521,117.752464 86.566566,124.176781 
	C78.884354,127.941315 72.717880,133.285034 70.630890,142.208908 
	C69.052139,148.959595 71.506218,154.307663 75.947525,159.195969 
	C76.459831,157.363449 76.287689,155.645721 76.239441,153.924500 
	C76.028809,146.410263 79.029854,140.358826 85.786354,137.160507 
	C95.604202,132.513062 106.210197,131.358109 116.923454,132.824921 
	C125.882690,134.051575 126.282822,134.132645 131.156860,125.569908 
z"/>
<path fill="#111111" opacity="1.000000" stroke="none" 
	d="
M155.738113,26.115173 
	C162.451599,27.112387 168.703552,28.033295 174.933594,29.083994 
	C178.024857,29.605333 178.737595,31.406145 177.220505,34.133793 
	C173.179672,41.398949 169.168396,48.680611 165.105881,55.933598 
	C163.136719,59.449223 159.908234,58.290836 157.061172,57.787010 
	C141.285660,54.995296 125.528793,55.670010 109.833397,58.174980 
	C91.599388,61.085110 74.435196,67.466034 60.272617,79.251144 
	C38.480499,97.385033 28.467165,128.597763 48.952694,154.641220 
	C50.059586,156.048416 51.033470,157.560242 52.824654,160.090378 
	C50.902779,159.512405 50.080681,159.497604 49.596321,159.085648 
	C35.882595,147.422516 25.446646,134.018951 24.969120,114.866600 
	C24.457048,94.328644 32.155109,77.514412 46.256931,62.849842 
	C62.511009,45.947128 82.196472,35.674309 104.706039,30.304533 
	C121.331665,26.338402 138.233704,25.337891 155.738113,26.115173 
z"/>
<path fill="#111111" opacity="1.000000" stroke="none" 
	d="
M73.194565,114.147537 
	C65.430061,120.219017 60.274029,127.409836 59.106716,137.158707 
	C57.931076,146.977127 61.758255,154.966553 68.182114,162.144333 
	C67.858185,162.461166 67.534256,162.777985 67.210327,163.094803 
	C65.736237,162.127426 64.084320,161.350296 62.815083,160.163788 
	C46.988449,145.368683 45.675705,120.263474 59.094658,103.115227 
	C72.452171,86.045502 90.856117,79.362167 111.214806,77.500519 
	C123.211304,76.403519 135.438690,77.486977 147.540604,78.052460 
	C152.562332,78.287125 153.223953,80.140961 150.849792,84.618698 
	C148.204834,89.607185 145.388748,94.505219 142.762573,99.503265 
	C140.951965,102.949158 138.275116,103.978035 134.496902,103.446518 
	C121.229851,101.580101 107.874405,100.971359 94.930550,104.909515 
	C87.551407,107.154625 80.622940,110.880997 73.194565,114.147537 
z"/>
<path fill="#111111" opacity="1.000000" stroke="none" 
	d="
M131.009003,125.910149 
	C126.282822,134.132645 125.882690,134.051575 116.923454,132.824921 
	C106.210197,131.358109 95.604202,132.513062 85.786354,137.160507 
	C79.029854,140.358826 76.028809,146.410263 76.239441,153.924500 
	C76.287689,155.645721 76.459831,157.363449 75.947525,159.195969 
	C71.506218,154.307663 69.052139,148.959595 70.630890,142.208908 
	C72.717880,133.285034 78.884354,127.941315 86.566566,124.176781 
	C99.676521,117.752464 113.628319,118.152756 127.641022,119.930122 
	C130.895309,120.342888 132.356705,122.211609 131.009003,125.910149 
z"/>
</svg>